# Blender v2.64 (sub 0) OBJ File: 'HookBox.blend'
# www.blender.org
g BoxWithHook
v 0.474111 1.104128 0.000000
v 0.431673 1.104128 -0.102454
v 0.329219 1.104128 -0.144892
v 0.226765 1.104128 -0.102454
v 0.184327 1.104128 -0.000000
v 0.226765 1.104128 0.102454
v 0.329219 1.104128 0.144892
v 0.431673 1.104128 0.102454
v -0.474111 1.104128 0.000000
v -0.431673 1.104128 -0.102454
v -0.329219 1.104128 -0.144892
v -0.226765 1.104128 -0.102454
v -0.184327 1.104128 0.000000
v -0.226765 1.104128 0.102454
v -0.329219 1.104128 0.144892
v -0.431673 1.104128 0.102454
v -0.438022 1.285563 0.000000
v -0.398814 1.269323 -0.102454
v -0.304159 1.230115 -0.144892
v -0.209504 1.190908 -0.102454
v -0.170296 1.174667 -0.000000
v -0.209504 1.190908 0.102454
v -0.304159 1.230115 0.144892
v -0.398814 1.269323 0.102454
v -0.335247 1.439376 0.000000
v -0.305239 1.409368 -0.102454
v -0.232793 1.336922 -0.144892
v -0.160347 1.264476 -0.102454
v -0.130339 1.234468 -0.000000
v -0.160347 1.264476 0.102454
v -0.232793 1.336922 0.144892
v -0.305239 1.409368 0.102454
v -0.181435 1.542150 -0.000000
v -0.165194 1.502943 -0.102454
v -0.125987 1.408288 -0.144892
v -0.086779 1.313632 -0.102454
v -0.070539 1.274425 0.000000
v -0.086779 1.313632 0.102454
v -0.125987 1.408288 0.144892
v -0.165194 1.502943 0.102454
v 0.000000 1.578240 -0.000000
v 0.000000 1.535802 -0.102454
v 0.000000 1.433348 -0.144892
v 0.000000 1.330894 -0.102454
v 0.000000 1.288456 0.000000
v 0.000000 1.330894 0.102454
v 0.000000 1.433348 0.144892
v 0.000000 1.535802 0.102454
v 0.181435 1.542150 -0.000000
v 0.165194 1.502943 -0.102454
v 0.125987 1.408287 -0.144892
v 0.086779 1.313632 -0.102454
v 0.070539 1.274425 0.000000
v 0.086779 1.313632 0.102454
v 0.125987 1.408287 0.144892
v 0.165194 1.502943 0.102454
v 0.335247 1.439376 0.000000
v 0.305239 1.409368 -0.102454
v 0.232793 1.336922 -0.144892
v 0.160347 1.264476 -0.102454
v 0.130339 1.234468 -0.000000
v 0.160347 1.264476 0.102454
v 0.232793 1.336922 0.144892
v 0.305239 1.409368 0.102454
v 0.438022 1.285563 0.000000
v 0.398814 1.269323 -0.102454
v 0.304159 1.230115 -0.144892
v 0.209504 1.190908 -0.102454
v 0.170296 1.174668 -0.000000
v 0.209504 1.190908 0.102454
v 0.304159 1.230115 0.144892
v 0.398814 1.269323 0.102454
v 0.474111 0.989162 0.000000
v 0.431673 0.989162 -0.102454
v 0.329219 0.989162 -0.144892
v 0.226765 0.989162 -0.102454
v 0.184327 0.989162 -0.000000
v 0.226765 0.989162 0.102454
v 0.329219 0.989162 0.144892
v 0.431673 0.989162 0.102454
v -0.474111 0.989162 0.000000
v -0.431673 0.989162 -0.102454
v -0.329219 0.989162 -0.144892
v -0.226765 0.989162 -0.102454
v -0.184327 0.989162 0.000000
v -0.226765 0.989162 0.102454
v -0.329219 0.989162 0.144892
v -0.431673 0.989162 0.102454
v -0.900000 -0.800000 0.900000
v -0.900000 0.800000 0.900000
v -0.900000 0.800000 -0.900000
v -0.900000 -0.800000 -0.900000
v 0.900000 0.800000 -0.900000
v 0.900000 -0.800000 -0.900000
v 0.900000 0.800000 0.900000
v 0.900000 -0.800000 0.900000
v 0.800000 -1.000000 0.800000
v -0.800000 -1.000000 0.800000
v -0.800000 -1.000000 -0.800000
v 0.800000 -1.000000 -0.800000
v -0.800000 1.000000 0.800000
v 0.800000 1.000000 0.800000
v 0.800000 1.000000 -0.800000
v -0.800000 1.000000 -0.800000
v -0.800000 -1.000000 -0.800000
v -0.800000 -1.000000 -0.800000
v -0.900000 -0.800000 -0.900000
v -0.900000 -0.800000 -0.900000
v -0.900000 -0.800000 -0.900000
v -0.900000 -0.800000 0.900000
v -0.900000 -0.800000 0.900000
v -0.900000 -0.800000 0.900000
v -0.800000 -1.000000 0.800000
v -0.800000 -1.000000 0.800000
v -0.900000 0.800000 0.900000
v -0.900000 0.800000 0.900000
v -0.900000 0.800000 0.900000
v -0.900000 0.800000 -0.900000
v -0.900000 0.800000 -0.900000
v -0.900000 0.800000 -0.900000
v 0.800000 -1.000000 -0.800000
v 0.800000 -1.000000 -0.800000
v 0.900000 -0.800000 -0.900000
v 0.900000 -0.800000 -0.900000
v 0.900000 -0.800000 -0.900000
v 0.800000 -1.000000 0.800000
v 0.800000 -1.000000 0.800000
v 0.900000 -0.800000 0.900000
v 0.900000 -0.800000 0.900000
v 0.900000 -0.800000 0.900000
v 0.900000 0.800000 -0.900000
v 0.900000 0.800000 -0.900000
v 0.900000 0.800000 -0.900000
v 0.800000 1.000000 -0.800000
v 0.800000 1.000000 -0.800000
v 0.900000 0.800000 0.900000
v 0.900000 0.800000 0.900000
v 0.900000 0.800000 0.900000
v 0.800000 1.000000 0.800000
v 0.800000 1.000000 0.800000
v -0.800000 1.000000 -0.800000
v -0.800000 1.000000 -0.800000
v -0.800000 1.000000 0.800000
v -0.800000 1.000000 0.800000
vt 0.931546 0.247145
vt 0.914101 0.269263
vt 0.902542 0.257523
vt 0.917569 0.238097
vt 0.890798 0.245931
vt 0.902866 0.230221
vt 0.878107 0.233260
vt 0.887492 0.221882
vt 0.866238 0.219909
vt 0.873276 0.211868
vt 0.799408 0.083944
vt 0.806547 0.092027
vt 0.794568 0.105301
vt 0.785197 0.093959
vt 0.782115 0.118167
vt 0.769938 0.102441
vt 0.770519 0.130018
vt 0.755240 0.110546
vt 0.758930 0.141855
vt 0.741229 0.119752
vt 0.891712 0.286752
vt 0.883285 0.272380
vt 0.874823 0.258007
vt 0.865725 0.242188
vt 0.857337 0.225983
vt 0.815513 0.098112
vt 0.806962 0.114250
vt 0.798182 0.130244
vt 0.789980 0.144816
vt 0.781562 0.159259
vt 0.865234 0.298399
vt 0.860632 0.282043
vt 0.856045 0.265722
vt 0.851185 0.247827
vt 0.846931 0.229631
vt 0.825962 0.101757
vt 0.821544 0.119925
vt 0.817046 0.137918
vt 0.812781 0.154342
vt 0.808216 0.170732
vt 0.835897 0.303051
vt 0.835865 0.285639
vt 0.835682 0.268456
vt 0.835459 0.249728
vt 0.835521 0.230602
vt 0.837384 0.102703
vt 0.837343 0.121867
vt 0.837428 0.140587
vt 0.837605 0.157737
vt 0.837622 0.175144
vt 0.806475 0.298687
vt 0.811012 0.282282
vt 0.815248 0.265841
vt 0.819690 0.247826
vt 0.824092 0.229655
vt 0.848781 0.101691
vt 0.853063 0.119847
vt 0.857795 0.137765
vt 0.862386 0.154125
vt 0.866979 0.170500
vt 0.779786 0.287264
vt 0.788179 0.272797
vt 0.796354 0.258202
vt 0.805102 0.242181
vt 0.813631 0.226022
vt 0.859195 0.098035
vt 0.867577 0.114240
vt 0.876631 0.130088
vt 0.885076 0.144488
vt 0.893488 0.158881
vt 0.757106 0.269899
vt 0.768676 0.258032
vt 0.780254 0.246151
vt 0.792686 0.233252
vt 0.804647 0.219948
vt 0.868108 0.091963
vt 0.879969 0.105333
vt 0.892641 0.118034
vt 0.904372 0.129652
vt 0.915920 0.141420
vt 0.739348 0.247821
vt 0.753348 0.238580
vt 0.768037 0.230441
vt 0.783287 0.221923
vt 0.797488 0.211873
vt 0.875162 0.083925
vt 0.889373 0.093965
vt 0.904743 0.102334
vt 0.919443 0.110239
vt 0.933413 0.119316
vt 0.744362 0.223754
vt 0.759096 0.215211
vt 0.928241 0.095426
vt 0.942671 0.104357
vt 0.729920 0.232848
vt 0.896956 0.206538
vt 0.911597 0.214949
vt 0.926337 0.223279
vt 0.898867 0.078625
vt 0.913505 0.087065
vt 0.940772 0.232179
vt 0.884794 0.069334
vt 0.761033 0.087202
vt 0.775652 0.078659
vt 0.882879 0.197275
vt 0.731837 0.104768
vt 0.746290 0.095709
vt 0.773706 0.206632
vt 0.787787 0.197275
vt 0.789743 0.069336
vt 0.980049 0.878933
vt 0.699463 0.878933
vt 0.699463 0.629524
vt 0.980049 0.629524
vt 0.064498 0.567253
vt 0.064498 0.317843
vt 0.313907 0.317843
vt 0.313908 0.567253
vt 0.309755 0.665792
vt 0.309755 0.915201
vt 0.060345 0.915201
vt 0.060345 0.665792
vt 0.983510 0.581343
vt 0.702925 0.581343
vt 0.702925 0.331933
vt 0.983510 0.331933
vt 0.029642 0.582841
vt 0.029642 0.302255
vt 0.344611 0.650204
vt 0.344611 0.930790
vt 0.659561 0.589622
vt 0.378975 0.589622
vt 0.378975 0.340212
vt 0.659561 0.340212
vt 0.044757 0.630936
vt 0.325343 0.630936
vt 0.348764 0.302255
vt 0.348764 0.582841
vt 0.048910 0.282987
vt 0.329495 0.282987
vt 0.659561 0.878933
vt 0.378975 0.878933
vt 0.378975 0.629524
vt 0.659561 0.629524
vt 0.025489 0.930789
vt 0.025489 0.650204
vt 0.325343 0.950057
vt 0.044756 0.950058
vt 0.329496 0.602109
vt 0.048910 0.602109
vn -0.995392 0.095737 0.000000
vn -0.923856 0.382672 0.000000
vn -0.673910 0.279122 -0.684042
vn -0.716300 0.070742 -0.694174
vn -0.044099 0.018250 -0.998840
vn -0.023835 0.004730 -0.999695
vn 0.629688 -0.260811 -0.731712
vn 0.692648 -0.068453 -0.717978
vn 0.923856 -0.382672 0.000000
vn 0.994934 -0.100406 0.000000
vn 0.629688 -0.260811 0.731712
vn 0.692648 -0.068453 0.717978
vn -0.044099 0.018250 0.998840
vn -0.023835 0.004730 0.999695
vn -0.673910 0.279122 0.684042
vn -0.716300 0.070742 0.694174
vn -0.707083 0.707083 0.000000
vn -0.515763 0.515763 -0.684042
vn -0.033753 0.033753 -0.998840
vn 0.481948 -0.481948 -0.731712
vn 0.707083 -0.707083 0.000000
vn 0.481948 -0.481948 0.731712
vn -0.033753 0.033753 0.998840
vn -0.515763 0.515763 0.684042
vn -0.382672 0.923856 0.000000
vn -0.279122 0.673910 -0.684042
vn -0.018250 0.044099 -0.998840
vn 0.260811 -0.629688 -0.731712
vn 0.382672 -0.923856 0.000000
vn 0.260811 -0.629688 0.731712
vn -0.018250 0.044099 0.998840
vn -0.279122 0.673910 0.684042
vn 0.000000 1.000000 0.000000
vn 0.000000 0.729423 -0.684042
vn 0.000000 0.047731 -0.998840
vn 0.000000 -0.681600 -0.731712
vn 0.000000 -1.000000 0.000000
vn 0.000000 -0.681600 0.731712
vn 0.000000 0.047731 0.998840
vn 0.000000 0.729423 0.684042
vn 0.382672 0.923856 0.000000
vn 0.279122 0.673910 -0.684042
vn 0.018250 0.044099 -0.998840
vn -0.260811 -0.629688 -0.731712
vn -0.382672 -0.923856 0.000000
vn -0.260811 -0.629688 0.731712
vn 0.018250 0.044099 0.998840
vn 0.279122 0.673910 0.684042
vn 0.707083 0.707083 0.000000
vn 0.515763 0.515763 -0.684042
vn 0.033753 0.033753 -0.998840
vn -0.481948 -0.481948 -0.731712
vn -0.707083 -0.707083 0.000000
vn -0.481948 -0.481948 0.731712
vn 0.033753 0.033753 0.998840
vn 0.515763 0.515763 0.684042
vn 0.923856 0.382672 0.000000
vn 0.673910 0.279122 -0.684042
vn 0.044099 0.018250 -0.998840
vn -0.629688 -0.260811 -0.731712
vn -0.923856 -0.382672 0.000000
vn -0.629688 -0.260811 0.731712
vn 0.044099 0.018250 0.998840
vn 0.673910 0.279122 0.684042
vn 0.995392 0.095737 0.000000
vn 0.716300 0.070742 -0.694174
vn 0.023835 0.004730 -0.999695
vn -0.692648 -0.068453 -0.717978
vn -0.994934 -0.100406 0.000000
vn -0.692648 -0.068453 0.717978
vn 0.023835 0.004730 0.999695
vn 0.716300 0.070742 0.694174
vn 0.707083 0.000000 -0.707083
vn 0.000000 0.000000 -1.000000
vn 0.707083 0.000000 0.707083
vn 1.000000 0.000000 0.000000
vn -0.707083 0.000000 -0.707083
vn -0.707083 0.000000 0.707083
vn 0.000000 0.000000 1.000000
vn -1.000000 0.000000 0.000000
vn -0.894406 -0.447188 0.000000
vn 0.894406 0.447188 0.000000
vn 0.000000 0.447188 0.894406
vn 0.894406 -0.447188 0.000000
vn 0.000000 -0.447188 -0.894406
vn -0.894406 0.447188 0.000000
vn 0.000000 0.447188 -0.894406
vn 0.000000 -0.447188 0.894406
s 1
f 9/1/1 17/2/2 18/3/3 10/4/4
f 10/4/4 18/3/3 19/5/5 11/6/6
f 11/6/6 19/5/5 20/7/7 12/8/8
f 12/8/8 20/7/7 21/9/9 13/10/10
f 13/11/10 21/12/9 22/13/11 14/14/12
f 14/14/12 22/13/11 23/15/13 15/16/14
f 15/16/14 23/15/13 24/17/15 16/18/16
f 16/18/16 24/17/15 17/19/2 9/20/1
f 17/2/2 25/21/17 26/22/18 18/3/3
f 18/3/3 26/22/18 27/23/19 19/5/5
f 19/5/5 27/23/19 28/24/20 20/7/7
f 20/7/7 28/24/20 29/25/21 21/9/9
f 21/12/9 29/26/21 30/27/22 22/13/11
f 22/13/11 30/27/22 31/28/23 23/15/13
f 23/15/13 31/28/23 32/29/24 24/17/15
f 24/17/15 32/29/24 25/30/17 17/19/2
f 25/21/17 33/31/25 34/32/26 26/22/18
f 26/22/18 34/32/26 35/33/27 27/23/19
f 27/23/19 35/33/27 36/34/28 28/24/20
f 28/24/20 36/34/28 37/35/29 29/25/21
f 29/26/21 37/36/29 38/37/30 30/27/22
f 30/27/22 38/37/30 39/38/31 31/28/23
f 31/28/23 39/38/31 40/39/32 32/29/24
f 32/29/24 40/39/32 33/40/25 25/30/17
f 33/31/25 41/41/33 42/42/34 34/32/26
f 34/32/26 42/42/34 43/43/35 35/33/27
f 35/33/27 43/43/35 44/44/36 36/34/28
f 36/34/28 44/44/36 45/45/37 37/35/29
f 37/36/29 45/46/37 46/47/38 38/37/30
f 38/37/30 46/47/38 47/48/39 39/38/31
f 39/38/31 47/48/39 48/49/40 40/39/32
f 40/39/32 48/49/40 41/50/33 33/40/25
f 41/41/33 49/51/41 50/52/42 42/42/34
f 42/42/34 50/52/42 51/53/43 43/43/35
f 43/43/35 51/53/43 52/54/44 44/44/36
f 44/44/36 52/54/44 53/55/45 45/45/37
f 45/46/37 53/56/45 54/57/46 46/47/38
f 46/47/38 54/57/46 55/58/47 47/48/39
f 47/48/39 55/58/47 56/59/48 48/49/40
f 48/49/40 56/59/48 49/60/41 41/50/33
f 49/51/41 57/61/49 58/62/50 50/52/42
f 50/52/42 58/62/50 59/63/51 51/53/43
f 51/53/43 59/63/51 60/64/52 52/54/44
f 52/54/44 60/64/52 61/65/53 53/55/45
f 53/56/45 61/66/53 62/67/54 54/57/46
f 54/57/46 62/67/54 63/68/55 55/58/47
f 55/58/47 63/68/55 64/69/56 56/59/48
f 56/59/48 64/69/56 57/70/49 49/60/41
f 57/61/49 65/71/57 66/72/58 58/62/50
f 58/62/50 66/72/58 67/73/59 59/63/51
f 59/63/51 67/73/59 68/74/60 60/64/52
f 60/64/52 68/74/60 69/75/61 61/65/53
f 61/66/53 69/76/61 70/77/62 62/67/54
f 62/67/54 70/77/62 71/78/63 63/68/55
f 63/68/55 71/78/63 72/79/64 64/69/56
f 64/69/56 72/79/64 65/80/57 57/70/49
f 65/71/57 1/81/65 2/82/66 66/72/58
f 66/72/58 2/82/66 3/83/67 67/73/59
f 67/73/59 3/83/67 4/84/68 68/74/60
f 68/74/60 4/84/68 5/85/69 69/75/61
f 69/76/61 5/86/69 6/87/70 70/77/62
f 70/77/62 6/87/70 7/88/71 71/78/63
f 71/78/63 7/88/71 8/89/72 72/79/64
f 1/90/65 65/80/57 72/79/64 8/89/72
f 74/91/73 75/92/74 3/83/67 2/82/66
f 1/90/65 8/89/72 80/93/75 73/94/76
f 2/82/66 1/81/65 73/95/76 74/91/73
f 11/6/6 12/8/8 84/96/73 83/97/74
f 10/4/4 11/6/6 83/97/74 82/98/77
f 78/99/78 79/100/79 7/88/71 6/87/70
f 79/100/79 80/93/75 8/89/72 7/88/71
f 9/1/1 10/4/4 82/98/77 81/101/80
f 77/102/80 78/99/78 6/87/70 5/86/69
f 14/14/12 15/16/14 87/103/79 86/104/75
f 12/8/8 13/10/10 85/105/76 84/96/73
f 81/106/80 88/107/78 16/18/16 9/20/1
f 76/108/77 77/109/80 5/85/69 4/84/68
f 13/11/10 14/14/12 86/104/75 85/110/76
f 15/16/14 16/18/16 88/107/78 87/103/79
f 75/92/74 76/108/77 4/84/68 3/83/67
f 90/111/80 91/112/80 107/113/80 110/114/80
f 113/115/37 105/116/37 121/117/37 126/118/37
f 139/119/33 134/120/33 141/121/33 143/122/33
f 131/123/76 136/124/76 128/125/76 123/126/76
f 89/127/81 92/128/81 99/116/81 98/115/81
f 103/120/82 102/119/82 95/129/82 93/130/82
f 119/131/74 132/132/74 124/133/74 108/134/74
f 115/135/83 137/136/83 140/119/83 101/122/83
f 97/118/84 100/117/84 94/137/84 96/138/84
f 109/139/85 125/140/85 122/117/85 106/116/85
f 138/141/79 116/142/79 111/143/79 129/144/79
f 118/145/86 117/146/86 144/122/86 104/121/86
f 142/121/87 135/120/87 133/147/87 120/148/87
f 114/115/88 127/118/88 130/149/88 112/150/88
